<?xml version="1.0" encoding="iso-8859-1"?>
<!-- Generator: Adobe Illustrator 20.1.0, SVG Export Plug-In . SVG Version: 6.00 Build 0)  -->
<svg xmlns="http://www.w3.org/2000/svg" xmlns:xlink="http://www.w3.org/1999/xlink" version="1.1" id="&#1057;&#1083;&#1086;&#1081;_1" x="0px" y="0px" viewBox="0 0 64 64" style="enable-background:new 0 0 64 64;" xml:space="preserve">
<linearGradient id="SVGID_1__43969" gradientUnits="userSpaceOnUse" x1="32.0001" y1="5.3335" x2="32.0001" y2="59.5071" spreadMethod="reflect">
	<stop offset="0" style="stop-color:#1A6DFF"/>
	<stop offset="1" style="stop-color:#C822FF"/>
</linearGradient>
<path style="fill:url(#SVGID_1__43969);" d="M58,19.001c0-3.566-1.415-6.892-3.985-9.366c-2.569-2.473-5.962-3.766-9.521-3.624  c-6.745,0.256-12.228,5.739-12.484,12.484C32.003,18.664,32.016,19,32.016,19H22c-8.822,0-16,7.178-16,16  c0,8.667,6.927,15.746,15.535,15.993l5.097,5.927C27.204,57.606,28.067,58,29,58c0.933,0,1.796-0.394,2.357-1.067l5.107-5.939  C45.073,50.746,52,43.667,52,35c0-1.01-0.1-2-0.287-3H58V19.001z M50,35c0,7.72-6.28,14-14,14h-0.459l-5.71,6.641  c-0.381,0.457-1.27,0.47-1.673-0.013L22.459,49H22c-7.72,0-14-6.28-14-14s6.28-14,14-14h10.157c0.402,3,1.592,5.057,3.477,7.016  C38.107,30.585,41.433,32,45,32h4.673C49.886,33,50,33.987,50,35z M56,30H45c-3.018,0-5.832-1.197-7.926-3.372  c-2.092-2.173-3.181-5.035-3.066-8.057C34.221,12.96,38.959,8.221,44.57,8.008c0.145-0.005,0.289-0.008,0.433-0.008  c2.862,0,5.556,1.083,7.625,3.074C54.803,13.169,56,15.983,56,19.001V30z"/>
<linearGradient id="SVGID_2__43969" gradientUnits="userSpaceOnUse" x1="44.9997" y1="5.3335" x2="44.9997" y2="59.5071" spreadMethod="reflect">
	<stop offset="0" style="stop-color:#1A6DFF"/>
	<stop offset="1" style="stop-color:#C822FF"/>
</linearGradient>
<circle style="fill:url(#SVGID_2__43969);" cx="45" cy="25" r="2"/>
<linearGradient id="SVGID_3__43969" gradientUnits="userSpaceOnUse" x1="27" y1="5.3333" x2="27" y2="59.5069" spreadMethod="reflect">
	<stop offset="0" style="stop-color:#1A6DFF"/>
	<stop offset="1" style="stop-color:#C822FF"/>
</linearGradient>
<rect x="24" y="26" style="fill:url(#SVGID_3__43969);" width="6" height="2"/>
<linearGradient id="SVGID_4__43969" gradientUnits="userSpaceOnUse" x1="29" y1="5.3333" x2="29" y2="59.5069" spreadMethod="reflect">
	<stop offset="0" style="stop-color:#1A6DFF"/>
	<stop offset="1" style="stop-color:#C822FF"/>
</linearGradient>
<rect x="24" y="30" style="fill:url(#SVGID_4__43969);" width="10" height="2"/>
<linearGradient id="SVGID_5__43969" gradientUnits="userSpaceOnUse" x1="31" y1="5.3333" x2="31" y2="59.5069" spreadMethod="reflect">
	<stop offset="0" style="stop-color:#1A6DFF"/>
	<stop offset="1" style="stop-color:#C822FF"/>
</linearGradient>
<rect x="24" y="34" style="fill:url(#SVGID_5__43969);" width="14" height="2"/>
<linearGradient id="SVGID_6__43969" gradientUnits="userSpaceOnUse" x1="29" y1="5.3345" x2="29" y2="59.5062" spreadMethod="reflect">
	<stop offset="0" style="stop-color:#1A6DFF"/>
	<stop offset="1" style="stop-color:#C822FF"/>
</linearGradient>
<rect x="12" y="38" style="fill:url(#SVGID_6__43969);" width="34" height="2"/>
<linearGradient id="SVGID_7__43969" gradientUnits="userSpaceOnUse" x1="29" y1="5.3328" x2="29" y2="59.5072" spreadMethod="reflect">
	<stop offset="0" style="stop-color:#1A6DFF"/>
	<stop offset="1" style="stop-color:#C822FF"/>
</linearGradient>
<rect x="19" y="42" style="fill:url(#SVGID_7__43969);" width="20" height="2"/>
<linearGradient id="SVGID_8__43969" gradientUnits="userSpaceOnUse" x1="44.9998" y1="5.3335" x2="44.9998" y2="59.5065" spreadMethod="reflect">
	<stop offset="0" style="stop-color:#1A6DFF"/>
	<stop offset="1" style="stop-color:#C822FF"/>
</linearGradient>
<path style="fill:url(#SVGID_8__43969);" d="M45,12c-2.206,0-4,2-4,4h2c0-1,0.897-2,2-2s2,0.897,2,2s-0.897,2-2,2h-1v3h2v-1.126  c1-0.444,3-2.013,3-3.873C49,13.794,47.206,12,45,12z"/>
<linearGradient id="SVGID_9__43969" gradientUnits="userSpaceOnUse" x1="16" y1="25.8335" x2="16" y2="36.8346" spreadMethod="reflect">
	<stop offset="0" style="stop-color:#6DC7FF"/>
	<stop offset="1" style="stop-color:#E6ABFF"/>
</linearGradient>
<path style="fill:url(#SVGID_9__43969);" d="M20,36h-8v-2c0-4.418,3.582-8,8-8h0V36z"/>
</svg>
